<?xml version="1.0" encoding="UTF-8"?>
<svg id="Icons_outline" xmlns="http://www.w3.org/2000/svg" viewBox="0 0 25 25">
  <defs>
    <style>
      .cls-1 {
        fill: #00e6a0;
      }

      .cls-2 {
        fill: #003246;
      }

      .cls-3 {
        fill: #fff;
      }
    </style>
  </defs>
  <rect class="cls-2" width="25" height="25"/>
  <path class="cls-3" d="m19.0332,13.3239V4.7017h-1.8008v.0005h-3.4072v1.7998h3.4072v1.8037h-3.4072v1.7998h3.4072v3.2178c-1.9778.4161-3.4678,2.1727-3.4678,4.2729,0,2.4082,1.959,4.3677,4.3672,4.3677s4.3682-1.9595,4.3682-4.3677c0-2.0994-1.4897-3.8554-3.4668-4.2723Zm-.9014,6.8401c-1.415,0-2.5664-1.1519-2.5664-2.5679s1.1514-2.5684,2.5664-2.5684c1.416,0,2.5674,1.1523,2.5674,2.5684s-1.1514,2.5679-2.5674,2.5679Z"/>
  <path class="cls-1" d="m7.7676,11.6767c1.9778-.4161,3.4678-2.1727,3.4678-4.2729,0-2.4082-1.959-4.3677-4.3672-4.3677s-4.3682,1.9595-4.3682,4.3677c0,2.0994,1.4897,3.8554,3.4668,4.2723v8.6218h5.209v-1.7998h-3.4082v-1.8037h3.4082v-1.7998h-3.4082v-3.2178Zm-3.4668-4.2729c0-1.416,1.1514-2.5679,2.5674-2.5679,1.415,0,2.5664,1.1519,2.5664,2.5679s-1.1514,2.5684-2.5664,2.5684c-1.416,0-2.5674-1.1523-2.5674-2.5684Z"/>
</svg>